<svg width="377" height="272" viewBox="0 0 377 272" fill="none" xmlns="http://www.w3.org/2000/svg">
<rect width="377" height="272" fill="white"/>
<path d="M316.567 0H0V180.548H316.567V0Z" fill="#3F3D56"/>
<path d="M60.0193 25.4543H57.2277V30.19H60.0193V25.4543Z" fill="#576CBC"/>
<path d="M69.5107 24.2704H66.7191V29.0061H69.5107V24.2704Z" fill="#576CBC"/>
<path d="M74.5356 24.2704H71.744V29.0061H74.5356V24.2704Z" fill="#576CBC"/>
<path d="M74.5356 38.4775H71.744V43.2132H74.5356V38.4775Z" fill="#576CBC"/>
<path d="M80.1188 31.374H77.3272V36.1097H80.1188V31.374Z" fill="#576CBC"/>
<path d="M80.1188 39.0695H77.3272V43.8052H80.1188V39.0695Z" fill="#576CBC"/>
<path d="M74.5356 53.8685H71.744V58.6042H74.5356V53.8685Z" fill="#576CBC"/>
<path d="M80.1188 61.564H77.3272V66.2997H80.1188V61.564Z" fill="#576CBC"/>
<path d="M74.5356 90.5701H71.744V95.3058H74.5356V90.5701Z" fill="#576CBC"/>
<path d="M69.5107 61.564H66.7191V66.2997H69.5107V61.564Z" fill="#576CBC"/>
<path d="M60.0193 33.1498H57.2277V37.8855H60.0193V33.1498Z" fill="#576CBC"/>
<path d="M60.0193 107.145H57.2277V111.881H60.0193V107.145Z" fill="#576CBC"/>
<path d="M60.0193 122.536H57.2277V127.272H60.0193V122.536Z" fill="#576CBC"/>
<path d="M60.0193 130.232H57.2277V134.967H60.0193V130.232Z" fill="#576CBC"/>
<path d="M60.0193 41.4373H56.1111V42.0293H60.0193V41.4373Z" fill="#576CBC"/>
<path d="M75.0939 48.5408H71.1857V49.1328H75.0939V48.5408Z" fill="#576CBC"/>
<path d="M60.0193 79.3228H56.1111V79.9148H60.0193V79.3228Z" fill="#576CBC"/>
<path d="M60.0193 85.8344H56.1111V86.4264H60.0193V85.8344Z" fill="#576CBC"/>
<path d="M75.0939 123.72H71.1857V124.312H75.0939V123.72Z" fill="#576CBC"/>
<path d="M70.6274 137.927H66.7191V138.519H70.6274V137.927Z" fill="#576CBC"/>
<path d="M57.2277 46.7651V47.9489H58.3442V50.3168H57.2277V51.5005H60.0193V46.7651H57.2277Z" fill="#576CBC"/>
<path d="M66.7193 38.4776V39.6614H67.8358V42.0293H66.7193V43.2131H69.5108V38.4776H66.7193Z" fill="#576CBC"/>
<path d="M77.3273 46.1729V47.357H78.4438V49.7249H77.3273V50.9087H80.1189V46.1729H77.3273Z" fill="#576CBC"/>
<path d="M77.3273 69.2597V70.4434H78.4438V72.8113H77.3273V73.9951H80.1189V69.2597H77.3273Z" fill="#576CBC"/>
<path d="M77.3273 76.9549V78.139H78.4438V80.5069H77.3273V81.6907H80.1189V76.9549H77.3273Z" fill="#576CBC"/>
<path d="M77.3273 53.2766V54.4603H78.4438V56.8282H77.3273V58.0124H80.1189V53.2766H77.3273Z" fill="#576CBC"/>
<path d="M71.7438 31.3739V32.5581H72.8607V34.9256H71.7438V36.1097H74.5357V31.3739H71.7438Z" fill="#576CBC"/>
<path d="M74.5356 69.2595H71.744V73.9952H74.5356V69.2595Z" fill="#576CBC"/>
<path d="M74.5356 83.4666H71.744V88.2023H74.5356V83.4666Z" fill="#576CBC"/>
<path d="M71.7438 76.363V77.5468H72.8607V79.9147H71.7438V81.0988H74.5357V76.363H71.7438Z" fill="#576CBC"/>
<path d="M66.7193 46.1729V47.357H67.8358V49.7249H66.7193V50.9087H69.5108V46.1729H66.7193Z" fill="#576CBC"/>
<path d="M66.7193 53.8685V55.0526H67.8358V57.4201H66.7193V58.6043H69.5108V53.8685H66.7193Z" fill="#576CBC"/>
<path d="M69.5107 76.955H66.7191V81.6907H69.5107V76.955Z" fill="#576CBC"/>
<path d="M66.7193 69.2597V70.4434H67.8358V72.8113H66.7193V73.9951H69.5108V69.2597H66.7193Z" fill="#576CBC"/>
<path d="M69.5107 92.346H66.7191V97.0817H69.5107V92.346Z" fill="#576CBC"/>
<path d="M66.7193 84.6505V85.8343H67.8358V88.2022H66.7193V89.3863H69.5108V84.6505H66.7193Z" fill="#576CBC"/>
<path d="M69.5107 107.737H66.7191V112.473H69.5107V107.737Z" fill="#576CBC"/>
<path d="M74.5356 106.553H71.744V111.289H74.5356V106.553Z" fill="#576CBC"/>
<path d="M66.7193 100.041V101.225H67.8358V103.593H66.7193V104.777H69.5108V100.041H66.7193Z" fill="#576CBC"/>
<path d="M77.3273 100.041V101.225H78.4438V103.593H77.3273V104.777H80.1189V100.041H77.3273Z" fill="#576CBC"/>
<path d="M108.593 31.374H105.801V36.1097H108.593V31.374Z" fill="#576CBC"/>
<path d="M108.593 39.0695H105.801V43.8052H108.593V39.0695Z" fill="#576CBC"/>
<path d="M108.593 61.564H105.801V66.2997H108.593V61.564Z" fill="#576CBC"/>
<path d="M105.801 46.1729V47.357H106.918V49.7249H105.801V50.9087H108.593V46.1729H105.801Z" fill="#576CBC"/>
<path d="M105.801 69.2597V70.4434H106.918V72.8113H105.801V73.9951H108.593V69.2597H105.801Z" fill="#576CBC"/>
<path d="M105.801 76.9549V78.139H106.918V80.5069H105.801V81.6907H108.593V76.9549H105.801Z" fill="#576CBC"/>
<path d="M105.801 53.2766V54.4603H106.918V56.8282H105.801V58.0124H108.593V53.2766H105.801Z" fill="#576CBC"/>
<path d="M105.801 100.041V101.225H106.918V103.593H105.801V104.777H108.593V100.041H105.801Z" fill="#576CBC"/>
<path d="M69.5107 123.128H66.7191V127.864H69.5107V123.128Z" fill="#576CBC"/>
<path d="M74.5356 114.249H71.744V118.984H74.5356V114.249Z" fill="#576CBC"/>
<path d="M69.5107 143.255H66.7191V147.99H69.5107V143.255Z" fill="#576CBC"/>
<path d="M74.5356 129.048H71.744V133.783H74.5356V129.048Z" fill="#576CBC"/>
<path d="M66.7193 115.433V116.616H67.8358V118.984H66.7193V120.168H69.5108V115.433H66.7193Z" fill="#576CBC"/>
<path d="M66.7193 151.542V152.726H67.8358V155.094H66.7193V156.278H69.5108V151.542H66.7193Z" fill="#576CBC"/>
<path d="M100.218 24.2704H97.4266V29.0061H100.218V24.2704Z" fill="#576CBC"/>
<path d="M100.218 61.564H97.4266V66.2997H100.218V61.564Z" fill="#576CBC"/>
<path d="M101.335 137.927H97.4266V138.519H101.335V137.927Z" fill="#576CBC"/>
<path d="M97.4266 38.4776V39.6614H98.5435V42.0293H97.4266V43.2131H100.218V38.4776H97.4266Z" fill="#576CBC"/>
<path d="M97.4266 46.1729V47.357H98.5435V49.7249H97.4266V50.9087H100.218V46.1729H97.4266Z" fill="#576CBC"/>
<path d="M97.4266 53.8685V55.0526H98.5435V57.4201H97.4266V58.6043H100.218V53.8685H97.4266Z" fill="#576CBC"/>
<path d="M100.218 76.955H97.4266V81.6907H100.218V76.955Z" fill="#576CBC"/>
<path d="M97.4266 69.2597V70.4434H98.5435V72.8113H97.4266V73.9951H100.218V69.2597H97.4266Z" fill="#576CBC"/>
<path d="M100.218 92.346H97.4266V97.0817H100.218V92.346Z" fill="#576CBC"/>
<path d="M97.4266 84.6505V85.8343H98.5435V88.2022H97.4266V89.3863H100.218V84.6505H97.4266Z" fill="#576CBC"/>
<path d="M100.218 107.737H97.4266V112.473H100.218V107.737Z" fill="#576CBC"/>
<path d="M97.4266 100.041V101.225H98.5435V103.593H97.4266V104.777H100.218V100.041H97.4266Z" fill="#576CBC"/>
<path d="M100.218 123.128H97.4266V127.864H100.218V123.128Z" fill="#576CBC"/>
<path d="M100.218 143.255H97.4266V147.99H100.218V143.255Z" fill="#576CBC"/>
<path d="M97.4266 115.433V116.616H98.5435V118.984H97.4266V120.168H100.218V115.433H97.4266Z" fill="#576CBC"/>
<path d="M97.4266 151.542V152.726H98.5435V155.094H97.4266V156.278H100.218V151.542H97.4266Z" fill="#576CBC"/>
<path d="M113.618 24.2704H110.826V29.0061H113.618V24.2704Z" fill="#576CBC"/>
<path d="M113.618 61.564H110.826V66.2997H113.618V61.564Z" fill="#576CBC"/>
<path d="M114.735 137.927H110.826V138.519H114.735V137.927Z" fill="#576CBC"/>
<path d="M110.826 38.4776V39.6614H111.943V42.0293H110.826V43.2131H113.618V38.4776H110.826Z" fill="#576CBC"/>
<path d="M110.826 46.1729V47.357H111.943V49.7249H110.826V50.9087H113.618V46.1729H110.826Z" fill="#576CBC"/>
<path d="M110.826 53.8685V55.0526H111.943V57.4201H110.826V58.6043H113.618V53.8685H110.826Z" fill="#576CBC"/>
<path d="M113.618 76.955H110.826V81.6907H113.618V76.955Z" fill="#576CBC"/>
<path d="M110.826 69.2597V70.4434H111.943V72.8113H110.826V73.9951H113.618V69.2597H110.826Z" fill="#576CBC"/>
<path d="M113.618 92.346H110.826V97.0817H113.618V92.346Z" fill="#576CBC"/>
<path d="M110.826 84.6505V85.8343H111.943V88.2022H110.826V89.3863H113.618V84.6505H110.826Z" fill="#576CBC"/>
<path d="M113.618 107.737H110.826V112.473H113.618V107.737Z" fill="#576CBC"/>
<path d="M110.826 100.041V101.225H111.943V103.593H110.826V104.777H113.618V100.041H110.826Z" fill="#576CBC"/>
<path d="M113.618 123.128H110.826V127.864H113.618V123.128Z" fill="#576CBC"/>
<path d="M113.618 143.255H110.826V147.99H113.618V143.255Z" fill="#576CBC"/>
<path d="M110.826 115.433V116.616H111.943V118.984H110.826V120.168H113.618V115.433H110.826Z" fill="#576CBC"/>
<path d="M110.826 151.542V152.726H111.943V155.094H110.826V156.278H113.618V151.542H110.826Z" fill="#576CBC"/>
<path d="M71.7438 143.255V144.439H72.8607V146.806H71.7438V147.99H74.5357V143.255H71.7438Z" fill="#576CBC"/>
<path d="M71.7438 150.95V152.134H72.8607V154.502H71.7438V155.686H74.5357V150.95H71.7438Z" fill="#576CBC"/>
<path d="M57.2277 61.5641V62.7478H58.3442V65.1157H57.2277V66.2999H60.0193V61.5641H57.2277Z" fill="#576CBC"/>
<path d="M57.2277 91.7542V92.938H58.3442V95.3059H57.2277V96.4896H60.0193V91.7542H57.2277Z" fill="#576CBC"/>
<path d="M57.2277 99.4494V100.634H58.3442V103.001H57.2277V104.185H60.0193V99.4494H57.2277Z" fill="#576CBC"/>
<path d="M57.2277 114.841V116.024H58.3442V118.392H57.2277V119.576H60.0193V114.841H57.2277Z" fill="#576CBC"/>
<path d="M57.2277 136.743V137.927H58.3442V140.295H57.2277V141.479H60.0193V136.743H57.2277Z" fill="#576CBC"/>
<path d="M57.2277 143.255V144.439H58.3442V146.806H57.2277V147.99H60.0193V143.255H57.2277Z" fill="#576CBC"/>
<path d="M89.0519 25.4543H86.2603V30.19H89.0519V25.4543Z" fill="#576CBC"/>
<path d="M89.0519 33.1498H86.2603V37.8855H89.0519V33.1498Z" fill="#576CBC"/>
<path d="M89.0519 41.4373H85.1436V42.0293H89.0519V41.4373Z" fill="#576CBC"/>
<path d="M89.0519 79.3228H85.1436V79.9148H89.0519V79.3228Z" fill="#576CBC"/>
<path d="M89.0519 85.8344H85.1436V86.4264H89.0519V85.8344Z" fill="#576CBC"/>
<path d="M86.2603 46.7651V47.9489H87.3768V50.3168H86.2603V51.5005H89.0519V46.7651H86.2603Z" fill="#576CBC"/>
<path d="M86.2603 61.5641V62.7478H87.3768V65.1157H86.2603V66.2999H89.0519V61.5641H86.2603Z" fill="#576CBC"/>
<path d="M86.2603 91.7542V92.938H87.3768V95.3059H86.2603V96.4896H89.0519V91.7542H86.2603Z" fill="#576CBC"/>
<path d="M120.876 76.955H118.084V81.6907H120.876V76.955Z" fill="#576CBC"/>
<path d="M120.876 84.6505H118.084V89.3862H120.876V84.6505Z" fill="#576CBC"/>
<path d="M120.876 92.938H116.968V93.5299H120.876V92.938Z" fill="#576CBC"/>
<path d="M120.876 130.823H116.968V131.415H120.876V130.823Z" fill="#576CBC"/>
<path d="M120.876 137.335H116.968V137.927H120.876V137.335Z" fill="#576CBC"/>
<path d="M118.085 98.2657V99.4494H119.201V101.817H118.085V103.001H120.876V98.2657H118.085Z" fill="#576CBC"/>
<path d="M118.085 113.065V114.249H119.201V116.616H118.085V117.8H120.876V113.065H118.085Z" fill="#576CBC"/>
<path d="M118.085 143.255V144.439H119.201V146.806H118.085V147.99H120.876V143.255H118.085Z" fill="#576CBC"/>
<path d="M129.809 25.4543H127.018V30.19H129.809V25.4543Z" fill="#576CBC"/>
<path d="M139.301 24.2704H136.509V29.0061H139.301V24.2704Z" fill="#576CBC"/>
<path d="M144.325 24.2704H141.534V29.0061H144.325V24.2704Z" fill="#576CBC"/>
<path d="M144.325 38.4775H141.534V43.2132H144.325V38.4775Z" fill="#576CBC"/>
<path d="M149.909 31.374H147.117V36.1097H149.909V31.374Z" fill="#576CBC"/>
<path d="M149.909 39.0695H147.117V43.8052H149.909V39.0695Z" fill="#576CBC"/>
<path d="M144.325 53.8685H141.534V58.6042H144.325V53.8685Z" fill="#576CBC"/>
<path d="M149.909 61.564H147.117V66.2997H149.909V61.564Z" fill="#576CBC"/>
<path d="M144.325 90.5701H141.534V95.3058H144.325V90.5701Z" fill="#576CBC"/>
<path d="M139.301 61.564H136.509V66.2997H139.301V61.564Z" fill="#576CBC"/>
<path d="M129.809 33.1498H127.018V37.8855H129.809V33.1498Z" fill="#576CBC"/>
<path d="M129.809 107.145H127.018V111.881H129.809V107.145Z" fill="#576CBC"/>
<path d="M129.809 122.536H127.018V127.272H129.809V122.536Z" fill="#576CBC"/>
<path d="M129.809 130.232H127.018V134.967H129.809V130.232Z" fill="#576CBC"/>
<path d="M129.809 41.4373H125.901V42.0293H129.809V41.4373Z" fill="#576CBC"/>
<path d="M144.884 48.5408H140.976V49.1328H144.884V48.5408Z" fill="#576CBC"/>
<path d="M129.809 79.3228H125.901V79.9148H129.809V79.3228Z" fill="#576CBC"/>
<path d="M129.809 85.8344H125.901V86.4264H129.809V85.8344Z" fill="#576CBC"/>
<path d="M144.884 123.72H140.976V124.312H144.884V123.72Z" fill="#576CBC"/>
<path d="M140.417 137.927H136.509V138.519H140.417V137.927Z" fill="#576CBC"/>
<path d="M127.017 46.7651V47.9489H128.134V50.3168H127.017V51.5005H129.809V46.7651H127.017Z" fill="#576CBC"/>
<path d="M136.509 38.4776V39.6614H137.626V42.0293H136.509V43.2131H139.301V38.4776H136.509Z" fill="#576CBC"/>
<path d="M147.117 46.1729V47.357H148.234V49.7249H147.117V50.9087H149.909V46.1729H147.117Z" fill="#576CBC"/>
<path d="M147.117 69.2597V70.4434H148.234V72.8113H147.117V73.9951H149.909V69.2597H147.117Z" fill="#576CBC"/>
<path d="M147.117 76.9549V78.139H148.234V80.5069H147.117V81.6907H149.909V76.9549H147.117Z" fill="#576CBC"/>
<path d="M147.117 53.2766V54.4603H148.234V56.8282H147.117V58.0124H149.909V53.2766H147.117Z" fill="#576CBC"/>
<path d="M141.534 31.3739V32.5581H142.65V34.9256H141.534V36.1097H144.326V31.3739H141.534Z" fill="#576CBC"/>
<path d="M144.325 69.2595H141.534V73.9952H144.325V69.2595Z" fill="#576CBC"/>
<path d="M144.325 83.4666H141.534V88.2023H144.325V83.4666Z" fill="#576CBC"/>
<path d="M141.534 76.363V77.5468H142.65V79.9147H141.534V81.0988H144.326V76.363H141.534Z" fill="#576CBC"/>
<path d="M136.509 46.1729V47.357H137.626V49.7249H136.509V50.9087H139.301V46.1729H136.509Z" fill="#576CBC"/>
<path d="M136.509 53.8685V55.0526H137.626V57.4201H136.509V58.6043H139.301V53.8685H136.509Z" fill="#576CBC"/>
<path d="M139.301 76.955H136.509V81.6907H139.301V76.955Z" fill="#576CBC"/>
<path d="M136.509 69.2597V70.4434H137.626V72.8113H136.509V73.9951H139.301V69.2597H136.509Z" fill="#576CBC"/>
<path d="M139.301 92.346H136.509V97.0817H139.301V92.346Z" fill="#576CBC"/>
<path d="M136.509 84.6505V85.8343H137.626V88.2022H136.509V89.3863H139.301V84.6505H136.509Z" fill="#576CBC"/>
<path d="M139.301 107.737H136.509V112.473H139.301V107.737Z" fill="#576CBC"/>
<path d="M144.325 106.553H141.534V111.289H144.325V106.553Z" fill="#576CBC"/>
<path d="M136.509 100.041V101.225H137.626V103.593H136.509V104.777H139.301V100.041H136.509Z" fill="#576CBC"/>
<path d="M147.117 100.041V101.225H148.234V103.593H147.117V104.777H149.909V100.041H147.117Z" fill="#576CBC"/>
<path d="M178.383 31.374H175.591V36.1097H178.383V31.374Z" fill="#576CBC"/>
<path d="M178.383 39.0695H175.591V43.8052H178.383V39.0695Z" fill="#576CBC"/>
<path d="M178.383 61.564H175.591V66.2997H178.383V61.564Z" fill="#576CBC"/>
<path d="M175.591 46.1729V47.357H176.708V49.7249H175.591V50.9087H178.383V46.1729H175.591Z" fill="#576CBC"/>
<path d="M175.591 69.2597V70.4434H176.708V72.8113H175.591V73.9951H178.383V69.2597H175.591Z" fill="#576CBC"/>
<path d="M175.591 76.9549V78.139H176.708V80.5069H175.591V81.6907H178.383V76.9549H175.591Z" fill="#576CBC"/>
<path d="M175.591 53.2766V54.4603H176.708V56.8282H175.591V58.0124H178.383V53.2766H175.591Z" fill="#576CBC"/>
<path d="M175.591 100.041V101.225H176.708V103.593H175.591V104.777H178.383V100.041H175.591Z" fill="#576CBC"/>
<path d="M139.301 123.128H136.509V127.864H139.301V123.128Z" fill="#576CBC"/>
<path d="M144.325 114.249H141.534V118.984H144.325V114.249Z" fill="#576CBC"/>
<path d="M139.301 143.255H136.509V147.99H139.301V143.255Z" fill="#576CBC"/>
<path d="M144.325 129.048H141.534V133.783H144.325V129.048Z" fill="#576CBC"/>
<path d="M136.509 115.433V116.616H137.626V118.984H136.509V120.168H139.301V115.433H136.509Z" fill="#576CBC"/>
<path d="M136.509 151.542V152.726H137.626V155.094H136.509V156.278H139.301V151.542H136.509Z" fill="#576CBC"/>
<path d="M170.008 24.2704H167.216V29.0061H170.008V24.2704Z" fill="#576CBC"/>
<path d="M170.008 61.564H167.216V66.2997H170.008V61.564Z" fill="#576CBC"/>
<path d="M171.125 137.927H167.216V138.519H171.125V137.927Z" fill="#576CBC"/>
<path d="M167.216 38.4776V39.6614H168.333V42.0293H167.216V43.2131H170.008V38.4776H167.216Z" fill="#576CBC"/>
<path d="M167.216 46.1729V47.357H168.333V49.7249H167.216V50.9087H170.008V46.1729H167.216Z" fill="#576CBC"/>
<path d="M167.216 53.8685V55.0526H168.333V57.4201H167.216V58.6043H170.008V53.8685H167.216Z" fill="#576CBC"/>
<path d="M170.008 76.955H167.216V81.6907H170.008V76.955Z" fill="#576CBC"/>
<path d="M167.216 69.2597V70.4434H168.333V72.8113H167.216V73.9951H170.008V69.2597H167.216Z" fill="#576CBC"/>
<path d="M170.008 92.346H167.216V97.0817H170.008V92.346Z" fill="#576CBC"/>
<path d="M167.216 84.6505V85.8343H168.333V88.2022H167.216V89.3863H170.008V84.6505H167.216Z" fill="#576CBC"/>
<path d="M170.008 107.737H167.216V112.473H170.008V107.737Z" fill="#576CBC"/>
<path d="M167.216 100.041V101.225H168.333V103.593H167.216V104.777H170.008V100.041H167.216Z" fill="#576CBC"/>
<path d="M170.008 123.128H167.216V127.864H170.008V123.128Z" fill="#576CBC"/>
<path d="M170.008 143.255H167.216V147.99H170.008V143.255Z" fill="#576CBC"/>
<path d="M167.216 115.433V116.616H168.333V118.984H167.216V120.168H170.008V115.433H167.216Z" fill="#576CBC"/>
<path d="M167.216 151.542V152.726H168.333V155.094H167.216V156.278H170.008V151.542H167.216Z" fill="#576CBC"/>
<path d="M183.408 24.2704H180.616V29.0061H183.408V24.2704Z" fill="#576CBC"/>
<path d="M183.408 61.564H180.616V66.2997H183.408V61.564Z" fill="#576CBC"/>
<path d="M184.524 137.927H180.616V138.519H184.524V137.927Z" fill="#576CBC"/>
<path d="M180.616 38.4776V39.6614H181.733V42.0293H180.616V43.2131H183.408V38.4776H180.616Z" fill="#576CBC"/>
<path d="M180.616 46.1729V47.357H181.733V49.7249H180.616V50.9087H183.408V46.1729H180.616Z" fill="#576CBC"/>
<path d="M180.616 53.8685V55.0526H181.733V57.4201H180.616V58.6043H183.408V53.8685H180.616Z" fill="#576CBC"/>
<path d="M183.408 76.955H180.616V81.6907H183.408V76.955Z" fill="#576CBC"/>
<path d="M180.616 69.2597V70.4434H181.733V72.8113H180.616V73.9951H183.408V69.2597H180.616Z" fill="#576CBC"/>
<path d="M183.408 92.346H180.616V97.0817H183.408V92.346Z" fill="#576CBC"/>
<path d="M180.616 84.6505V85.8343H181.733V88.2022H180.616V89.3863H183.408V84.6505H180.616Z" fill="#576CBC"/>
<path d="M183.408 107.737H180.616V112.473H183.408V107.737Z" fill="#576CBC"/>
<path d="M180.616 100.041V101.225H181.733V103.593H180.616V104.777H183.408V100.041H180.616Z" fill="#576CBC"/>
<path d="M183.408 123.128H180.616V127.864H183.408V123.128Z" fill="#576CBC"/>
<path d="M183.408 143.255H180.616V147.99H183.408V143.255Z" fill="#576CBC"/>
<path d="M180.616 115.433V116.616H181.733V118.984H180.616V120.168H183.408V115.433H180.616Z" fill="#576CBC"/>
<path d="M180.616 151.542V152.726H181.733V155.094H180.616V156.278H183.408V151.542H180.616Z" fill="#576CBC"/>
<path d="M141.534 143.255V144.439H142.65V146.806H141.534V147.99H144.326V143.255H141.534Z" fill="#576CBC"/>
<path d="M141.534 150.95V152.134H142.65V154.502H141.534V155.686H144.326V150.95H141.534Z" fill="#576CBC"/>
<path d="M127.017 61.5641V62.7478H128.134V65.1157H127.017V66.2999H129.809V61.5641H127.017Z" fill="#576CBC"/>
<path d="M127.017 91.7542V92.938H128.134V95.3059H127.017V96.4896H129.809V91.7542H127.017Z" fill="#576CBC"/>
<path d="M127.017 99.4494V100.634H128.134V103.001H127.017V104.185H129.809V99.4494H127.017Z" fill="#576CBC"/>
<path d="M127.017 114.841V116.024H128.134V118.392H127.017V119.576H129.809V114.841H127.017Z" fill="#576CBC"/>
<path d="M127.017 136.743V137.927H128.134V140.295H127.017V141.479H129.809V136.743H127.017Z" fill="#576CBC"/>
<path d="M127.017 143.255V144.439H128.134V146.806H127.017V147.99H129.809V143.255H127.017Z" fill="#576CBC"/>
<path d="M158.842 25.4543H156.05V30.19H158.842V25.4543Z" fill="#576CBC"/>
<path d="M158.842 33.1498H156.05V37.8855H158.842V33.1498Z" fill="#576CBC"/>
<path d="M158.842 41.4373H154.933V42.0293H158.842V41.4373Z" fill="#576CBC"/>
<path d="M158.842 79.3228H154.933V79.9148H158.842V79.3228Z" fill="#576CBC"/>
<path d="M158.842 85.8344H154.933V86.4264H158.842V85.8344Z" fill="#576CBC"/>
<path d="M156.05 46.7651V47.9489H157.167V50.3168H156.05V51.5005H158.842V46.7651H156.05Z" fill="#576CBC"/>
<path d="M156.05 61.5641V62.7478H157.167V65.1157H156.05V66.2999H158.842V61.5641H156.05Z" fill="#576CBC"/>
<path d="M156.05 91.7542V92.938H157.167V95.3059H156.05V96.4896H158.842V91.7542H156.05Z" fill="#576CBC"/>
<path d="M190.666 76.955H187.874V81.6907H190.666V76.955Z" fill="#576CBC"/>
<path d="M190.666 84.6505H187.874V89.3862H190.666V84.6505Z" fill="#576CBC"/>
<path d="M190.666 92.938H186.758V93.5299H190.666V92.938Z" fill="#576CBC"/>
<path d="M190.666 130.823H186.758V131.415H190.666V130.823Z" fill="#576CBC"/>
<path d="M190.666 137.335H186.758V137.927H190.666V137.335Z" fill="#576CBC"/>
<path d="M187.874 98.2657V99.4494H188.991V101.817H187.874V103.001H190.666V98.2657H187.874Z" fill="#576CBC"/>
<path d="M187.874 113.065V114.249H188.991V116.616H187.874V117.8H190.666V113.065H187.874Z" fill="#576CBC"/>
<path d="M187.874 143.255V144.439H188.991V146.806H187.874V147.99H190.666V143.255H187.874Z" fill="#576CBC"/>
<path d="M199.599 25.4543H196.807V30.19H199.599V25.4543Z" fill="#576CBC"/>
<path d="M209.09 24.2704H206.299V29.0061H209.09V24.2704Z" fill="#576CBC"/>
<path d="M214.115 24.2704H211.324V29.0061H214.115V24.2704Z" fill="#576CBC"/>
<path d="M214.115 38.4775H211.324V43.2132H214.115V38.4775Z" fill="#576CBC"/>
<path d="M219.699 31.374H216.907V36.1097H219.699V31.374Z" fill="#576CBC"/>
<path d="M219.699 39.0695H216.907V43.8052H219.699V39.0695Z" fill="#576CBC"/>
<path d="M214.115 53.8685H211.324V58.6042H214.115V53.8685Z" fill="#576CBC"/>
<path d="M219.699 61.564H216.907V66.2997H219.699V61.564Z" fill="#576CBC"/>
<path d="M214.115 90.5701H211.324V95.3058H214.115V90.5701Z" fill="#576CBC"/>
<path d="M209.09 61.564H206.299V66.2997H209.09V61.564Z" fill="#576CBC"/>
<path d="M199.599 33.1498H196.807V37.8855H199.599V33.1498Z" fill="#576CBC"/>
<path d="M199.599 107.145H196.807V111.881H199.599V107.145Z" fill="#576CBC"/>
<path d="M199.599 122.536H196.807V127.272H199.599V122.536Z" fill="#576CBC"/>
<path d="M199.599 130.232H196.807V134.967H199.599V130.232Z" fill="#576CBC"/>
<path d="M199.599 41.4373H195.691V42.0293H199.599V41.4373Z" fill="#576CBC"/>
<path d="M214.674 48.5408H210.765V49.1328H214.674V48.5408Z" fill="#576CBC"/>
<path d="M199.599 79.3228H195.691V79.9148H199.599V79.3228Z" fill="#576CBC"/>
<path d="M199.599 85.8344H195.691V86.4264H199.599V85.8344Z" fill="#576CBC"/>
<path d="M214.674 123.72H210.765V124.312H214.674V123.72Z" fill="#576CBC"/>
<path d="M210.207 137.927H206.299V138.519H210.207V137.927Z" fill="#576CBC"/>
<path d="M196.807 46.7651V47.9489H197.924V50.3168H196.807V51.5005H199.599V46.7651H196.807Z" fill="#576CBC"/>
<path d="M206.299 38.4776V39.6614H207.415V42.0293H206.299V43.2131H209.09V38.4776H206.299Z" fill="#576CBC"/>
<path d="M216.907 46.1729V47.357H218.023V49.7249H216.907V50.9087H219.698V46.1729H216.907Z" fill="#576CBC"/>
<path d="M216.907 69.2597V70.4434H218.023V72.8113H216.907V73.9951H219.698V69.2597H216.907Z" fill="#576CBC"/>
<path d="M216.907 76.9549V78.139H218.023V80.5069H216.907V81.6907H219.698V76.9549H216.907Z" fill="#576CBC"/>
<path d="M216.907 53.2766V54.4603H218.023V56.8282H216.907V58.0124H219.698V53.2766H216.907Z" fill="#576CBC"/>
<path d="M211.324 31.3739V32.5581H212.44V34.9256H211.324V36.1097H214.115V31.3739H211.324Z" fill="#576CBC"/>
<path d="M214.115 69.2595H211.324V73.9952H214.115V69.2595Z" fill="#576CBC"/>
<path d="M214.115 83.4666H211.324V88.2023H214.115V83.4666Z" fill="#576CBC"/>
<path d="M211.324 76.363V77.5468H212.44V79.9147H211.324V81.0988H214.115V76.363H211.324Z" fill="#576CBC"/>
<path d="M206.299 46.1729V47.357H207.415V49.7249H206.299V50.9087H209.09V46.1729H206.299Z" fill="#576CBC"/>
<path d="M206.299 53.8685V55.0526H207.415V57.4201H206.299V58.6043H209.09V53.8685H206.299Z" fill="#576CBC"/>
<path d="M209.09 76.955H206.299V81.6907H209.09V76.955Z" fill="#576CBC"/>
<path d="M206.299 69.2597V70.4434H207.415V72.8113H206.299V73.9951H209.09V69.2597H206.299Z" fill="#576CBC"/>
<path d="M209.09 92.346H206.299V97.0817H209.09V92.346Z" fill="#576CBC"/>
<path d="M206.299 84.6505V85.8343H207.415V88.2022H206.299V89.3863H209.09V84.6505H206.299Z" fill="#576CBC"/>
<path d="M209.09 107.737H206.299V112.473H209.09V107.737Z" fill="#576CBC"/>
<path d="M214.115 106.553H211.324V111.289H214.115V106.553Z" fill="#576CBC"/>
<path d="M206.299 100.041V101.225H207.415V103.593H206.299V104.777H209.09V100.041H206.299Z" fill="#576CBC"/>
<path d="M216.907 100.041V101.225H218.023V103.593H216.907V104.777H219.698V100.041H216.907Z" fill="#576CBC"/>
<path d="M248.173 31.374H245.381V36.1097H248.173V31.374Z" fill="#576CBC"/>
<path d="M248.173 39.0695H245.381V43.8052H248.173V39.0695Z" fill="#576CBC"/>
<path d="M248.173 61.564H245.381V66.2997H248.173V61.564Z" fill="#576CBC"/>
<path d="M245.381 46.1729V47.357H246.498V49.7249H245.381V50.9087H248.173V46.1729H245.381Z" fill="#576CBC"/>
<path d="M245.381 69.2597V70.4434H246.498V72.8113H245.381V73.9951H248.173V69.2597H245.381Z" fill="#576CBC"/>
<path d="M245.381 76.9549V78.139H246.498V80.5069H245.381V81.6907H248.173V76.9549H245.381Z" fill="#576CBC"/>
<path d="M245.381 53.2766V54.4603H246.498V56.8282H245.381V58.0124H248.173V53.2766H245.381Z" fill="#576CBC"/>
<path d="M245.381 100.041V101.225H246.498V103.593H245.381V104.777H248.173V100.041H245.381Z" fill="#576CBC"/>
<path d="M209.09 123.128H206.299V127.864H209.09V123.128Z" fill="#576CBC"/>
<path d="M214.115 114.249H211.324V118.984H214.115V114.249Z" fill="#576CBC"/>
<path d="M209.09 143.255H206.299V147.99H209.09V143.255Z" fill="#576CBC"/>
<path d="M214.115 129.048H211.324V133.783H214.115V129.048Z" fill="#576CBC"/>
<path d="M206.299 115.433V116.616H207.415V118.984H206.299V120.168H209.09V115.433H206.299Z" fill="#576CBC"/>
<path d="M206.299 151.542V152.726H207.415V155.094H206.299V156.278H209.09V151.542H206.299Z" fill="#576CBC"/>
<path d="M239.798 24.2704H237.006V29.0061H239.798V24.2704Z" fill="#576CBC"/>
<path d="M239.798 61.564H237.006V66.2997H239.798V61.564Z" fill="#576CBC"/>
<path d="M240.915 137.927H237.006V138.519H240.915V137.927Z" fill="#576CBC"/>
<path d="M237.007 38.4776V39.6614H238.123V42.0293H237.007V43.2131H239.798V38.4776H237.007Z" fill="#576CBC"/>
<path d="M237.007 46.1729V47.357H238.123V49.7249H237.007V50.9087H239.798V46.1729H237.007Z" fill="#576CBC"/>
<path d="M237.007 53.8685V55.0526H238.123V57.4201H237.007V58.6043H239.798V53.8685H237.007Z" fill="#576CBC"/>
<path d="M239.798 76.955H237.006V81.6907H239.798V76.955Z" fill="#576CBC"/>
<path d="M237.007 69.2597V70.4434H238.123V72.8113H237.007V73.9951H239.798V69.2597H237.007Z" fill="#576CBC"/>
<path d="M239.798 92.346H237.006V97.0817H239.798V92.346Z" fill="#576CBC"/>
<path d="M237.007 84.6505V85.8343H238.123V88.2022H237.007V89.3863H239.798V84.6505H237.007Z" fill="#576CBC"/>
<path d="M239.798 107.737H237.006V112.473H239.798V107.737Z" fill="#576CBC"/>
<path d="M237.007 100.041V101.225H238.123V103.593H237.007V104.777H239.798V100.041H237.007Z" fill="#576CBC"/>
<path d="M239.798 123.128H237.006V127.864H239.798V123.128Z" fill="#576CBC"/>
<path d="M239.798 143.255H237.006V147.99H239.798V143.255Z" fill="#576CBC"/>
<path d="M237.007 115.433V116.616H238.123V118.984H237.007V120.168H239.798V115.433H237.007Z" fill="#576CBC"/>
<path d="M237.007 151.542V152.726H238.123V155.094H237.007V156.278H239.798V151.542H237.007Z" fill="#576CBC"/>
<path d="M253.198 24.2704H250.406V29.0061H253.198V24.2704Z" fill="#576CBC"/>
<path d="M253.198 61.564H250.406V66.2997H253.198V61.564Z" fill="#576CBC"/>
<path d="M254.314 137.927H250.406V138.519H254.314V137.927Z" fill="#576CBC"/>
<path d="M250.406 38.4776V39.6614H251.523V42.0293H250.406V43.2131H253.198V38.4776H250.406Z" fill="#576CBC"/>
<path d="M250.406 46.1729V47.357H251.523V49.7249H250.406V50.9087H253.198V46.1729H250.406Z" fill="#576CBC"/>
<path d="M250.406 53.8685V55.0526H251.523V57.4201H250.406V58.6043H253.198V53.8685H250.406Z" fill="#576CBC"/>
<path d="M253.198 76.955H250.406V81.6907H253.198V76.955Z" fill="#576CBC"/>
<path d="M250.406 69.2597V70.4434H251.523V72.8113H250.406V73.9951H253.198V69.2597H250.406Z" fill="#576CBC"/>
<path d="M253.198 92.346H250.406V97.0817H253.198V92.346Z" fill="#576CBC"/>
<path d="M250.406 84.6505V85.8343H251.523V88.2022H250.406V89.3863H253.198V84.6505H250.406Z" fill="#576CBC"/>
<path d="M253.198 107.737H250.406V112.473H253.198V107.737Z" fill="#576CBC"/>
<path d="M250.406 100.041V101.225H251.523V103.593H250.406V104.777H253.198V100.041H250.406Z" fill="#576CBC"/>
<path d="M253.198 123.128H250.406V127.864H253.198V123.128Z" fill="#576CBC"/>
<path d="M253.198 143.255H250.406V147.99H253.198V143.255Z" fill="#576CBC"/>
<path d="M250.406 115.433V116.616H251.523V118.984H250.406V120.168H253.198V115.433H250.406Z" fill="#576CBC"/>
<path d="M250.406 151.542V152.726H251.523V155.094H250.406V156.278H253.198V151.542H250.406Z" fill="#576CBC"/>
<path d="M211.324 143.255V144.439H212.44V146.806H211.324V147.99H214.115V143.255H211.324Z" fill="#576CBC"/>
<path d="M211.324 150.95V152.134H212.44V154.502H211.324V155.686H214.115V150.95H211.324Z" fill="#576CBC"/>
<path d="M196.807 61.5641V62.7478H197.924V65.1157H196.807V66.2999H199.599V61.5641H196.807Z" fill="#576CBC"/>
<path d="M196.807 91.7542V92.938H197.924V95.3059H196.807V96.4896H199.599V91.7542H196.807Z" fill="#576CBC"/>
<path d="M196.807 99.4494V100.634H197.924V103.001H196.807V104.185H199.599V99.4494H196.807Z" fill="#576CBC"/>
<path d="M196.807 114.841V116.024H197.924V118.392H196.807V119.576H199.599V114.841H196.807Z" fill="#576CBC"/>
<path d="M196.807 136.743V137.927H197.924V140.295H196.807V141.479H199.599V136.743H196.807Z" fill="#576CBC"/>
<path d="M196.807 143.255V144.439H197.924V146.806H196.807V147.99H199.599V143.255H196.807Z" fill="#576CBC"/>
<path d="M228.632 25.4543H225.84V30.19H228.632V25.4543Z" fill="#576CBC"/>
<path d="M228.632 33.1498H225.84V37.8855H228.632V33.1498Z" fill="#576CBC"/>
<path d="M228.632 41.4373H224.723V42.0293H228.632V41.4373Z" fill="#576CBC"/>
<path d="M228.632 79.3228H224.723V79.9148H228.632V79.3228Z" fill="#576CBC"/>
<path d="M228.632 85.8344H224.723V86.4264H228.632V85.8344Z" fill="#576CBC"/>
<path d="M225.84 46.7651V47.9489H226.957V50.3168H225.84V51.5005H228.631V46.7651H225.84Z" fill="#576CBC"/>
<path d="M225.84 61.5641V62.7478H226.957V65.1157H225.84V66.2999H228.631V61.5641H225.84Z" fill="#576CBC"/>
<path d="M225.84 91.7542V92.938H226.957V95.3059H225.84V96.4896H228.631V91.7542H225.84Z" fill="#576CBC"/>
<path d="M260.456 76.955H257.664V81.6907H260.456V76.955Z" fill="#576CBC"/>
<path d="M260.456 84.6505H257.664V89.3862H260.456V84.6505Z" fill="#576CBC"/>
<path d="M260.456 92.938H256.548V93.5299H260.456V92.938Z" fill="#576CBC"/>
<path d="M260.456 130.823H256.548V131.415H260.456V130.823Z" fill="#576CBC"/>
<path d="M260.456 137.335H256.548V137.927H260.456V137.335Z" fill="#576CBC"/>
<path d="M257.664 98.2657V99.4494H258.781V101.817H257.664V103.001H260.456V98.2657H257.664Z" fill="#576CBC"/>
<path d="M257.664 113.065V114.249H258.781V116.616H257.664V117.8H260.456V113.065H257.664Z" fill="#576CBC"/>
<path d="M257.664 143.255V144.439H258.781V146.806H257.664V147.99H260.456V143.255H257.664Z" fill="#576CBC"/>
<path d="M139.47 155.101V175.048L142.003 187.323C142.003 187.323 141.641 194.994 142.003 197.296C142.365 199.598 141.641 203.433 139.47 203.433C137.3 203.433 136.214 209.187 136.214 209.187C136.214 209.187 135.491 211.489 133.682 211.872C131.873 212.256 131.873 211.872 131.873 211.872L130.426 215.708L100.397 236.806L106.186 252.15C106.186 252.15 115.23 248.697 115.954 247.546C116.677 246.396 122.828 249.081 122.828 246.396C122.828 243.711 123.913 236.806 126.084 236.422C128.255 236.039 146.344 227.216 146.344 227.216C146.344 227.216 155.751 216.092 156.474 211.872C157.198 207.653 160.454 195.762 160.454 195.762L169.499 211.872V244.094L168.052 261.356L183.971 259.054C183.971 259.054 182.523 248.314 183.971 246.779C185.418 245.245 187.588 226.833 186.141 224.531C184.694 222.229 186.865 211.872 186.141 210.338C185.418 208.804 185.78 197.68 183.971 194.611C182.162 191.542 171.308 160.088 171.308 160.088L139.47 155.101Z" fill="#2F2E41"/>
<path d="M170.223 260.589C170.223 260.589 164.796 270.178 168.414 271.329C172.031 272.48 178.906 271.329 179.629 271.329C180.353 271.329 193.377 271.713 193.377 271.713C193.377 271.713 202.06 269.795 202.06 267.11C202.06 264.424 196.633 264.424 194.824 264.041C193.015 263.657 181.8 259.054 181.8 259.054L170.223 260.589Z" fill="#2F2E41"/>
<path d="M102.058 237.239C102.058 237.239 91.6018 235.77 92.0438 239.748C92.4859 243.725 96.2141 249.955 96.5017 250.659C96.6964 251.136 98.9815 257.172 100.436 261.019C101.488 263.838 103.067 266.403 105.08 268.557C106.502 270.064 108.052 271.273 109.069 270.806C111.393 269.738 109.236 264.459 108.849 262.546C108.462 260.634 107.988 247.892 107.988 247.892L102.058 237.239Z" fill="#2F2E41"/>
<path d="M174.745 91.6167L186.322 63.231C186.322 63.231 185.237 60.5458 182.704 60.9294C182.704 60.9294 179.267 51.5314 172.755 51.5314C172.755 51.5314 162.987 45.7776 160.092 51.5314C160.092 51.5314 153.942 57.2853 154.304 62.6556C154.666 68.0258 155.027 71.8618 155.027 71.8618C155.027 71.8618 149.239 72.6289 150.324 75.6977C151.409 78.7664 151.771 78.7664 150.324 79.9172L148.877 81.0679C148.877 81.0679 118.848 109.837 135.491 152.032L136.938 158.553V164.691C136.938 164.691 173.479 165.074 173.479 164.691C173.479 164.307 172.755 162.006 174.202 160.471C175.649 158.937 175.649 156.635 175.649 156.635C175.649 156.635 174.202 148.964 174.926 146.662C175.649 144.36 176.011 134.387 174.564 132.086C173.117 129.784 173.84 111.372 173.84 111.372L177.097 104.851L176.011 101.015L174.926 97.1788L174.745 91.6167Z" fill="#8985A8"/>
<path opacity="0.1" d="M171.67 168.527C171.67 168.527 167.328 155.868 167.69 153.567C168.052 151.265 166.966 146.662 166.966 146.662L165.519 115.591C165.519 115.591 171.67 87.9726 157.922 83.3695C157.922 83.3695 154.443 84.9789 151.593 90.1579C148.774 91.489 145.354 94.8578 144.535 103.316C143.088 118.276 149.6 156.635 152.857 163.156C156.113 169.677 158.283 174.281 158.283 174.281L161.687 172.677C161.827 172.972 161.901 173.13 161.901 173.13L171.67 168.527Z" fill="black"/>
<path d="M173.66 88.1644C174.259 88.1644 174.745 87.6492 174.745 87.0136C174.745 86.378 174.259 85.8628 173.66 85.8628C173.06 85.8628 172.574 86.378 172.574 87.0136C172.574 87.6492 173.06 88.1644 173.66 88.1644Z" fill="#F2F2F2"/>
<path d="M174.021 87.0136H173.298V105.042H174.021V87.0136Z" fill="#3F3D56"/>
<path d="M160.635 169.869L163.529 176.39C163.529 176.39 170.042 174.089 170.042 172.938C170.042 171.787 167.147 166.801 167.147 166.801L160.635 169.869Z" fill="#FFB8B8"/>
<path d="M156.474 83.3695C156.474 83.3695 148.153 87.2054 146.706 102.165C145.259 117.126 151.771 155.485 155.027 162.006C158.283 168.527 160.454 173.13 160.454 173.13L170.222 168.527C170.222 168.527 165.881 155.868 166.243 153.567C166.605 151.265 165.519 146.662 165.519 146.662L164.072 115.591C164.072 115.591 170.222 87.9726 156.474 83.3695Z" fill="#8985A8"/>
</svg>
